<svg width="180" height="180" viewBox="0 0 180 180" fill="none" xmlns="http://www.w3.org/2000/svg">
  <!-- Rounded rectangle background -->
  <rect width="180" height="180" rx="40" fill="#1976d2"/>
  
  <!-- DJ Headphones (scaled up) -->
  <path d="M45 67.5C45 48.8495 59.8497 33.75 78.75 33.75H101.25C120.15 33.75 135 48.8495 135 67.5V78.75H123.75C120.019 78.75 117 81.7688 117 85.5V108C117 111.731 120.019 114.75 123.75 114.75H135V67.5C135 48.8495 120.15 33.75 101.25 33.75H78.75C59.8497 33.75 45 48.8495 45 67.5V114.75H56.25C59.9812 114.75 63 111.731 63 108V85.5C63 81.7688 59.9812 78.75 56.25 78.75H45V67.5Z" fill="white"/>
  
  <!-- Music note (scaled up) -->
  <circle cx="90" cy="125.25" r="11.25" fill="#ff9800"/>
  <rect x="95.625" y="90" width="5.625" height="33.75" fill="#ff9800"/>
  <path d="M101.25 90C101.25 90 112.5 84.375 112.5 96.75V108C112.5 108 101.25 114.75 101.25 102.375V90Z" fill="#ff9800"/>
  
  <!-- Sound waves (scaled up) -->
  <path d="M140.625 61.875C143.456 61.875 145.75 64.1694 145.75 67V113C145.75 115.831 143.456 118.125 140.625 118.125C137.794 118.125 135.5 115.831 135.5 113V67C135.5 64.1694 137.794 61.875 140.625 61.875Z" fill="white" opacity="0.7"/>
  <path d="M151.875 73.125C154.706 73.125 157 75.4194 157 78.25V101.75C157 104.581 154.706 106.875 151.875 106.875C149.044 106.875 146.75 104.581 146.75 101.75V78.25C146.75 75.4194 149.044 73.125 151.875 73.125Z" fill="white" opacity="0.5"/>
  
  <!-- Additional decorative elements -->
  <circle cx="90" cy="45" r="3" fill="#ff9800" opacity="0.8"/>
  <circle cx="70" cy="50" r="2" fill="#ff9800" opacity="0.6"/>
  <circle cx="110" cy="50" r="2" fill="#ff9800" opacity="0.6"/>
</svg>