<svg width="32" height="32" viewBox="0 0 32 32" fill="none" xmlns="http://www.w3.org/2000/svg">
  <circle cx="16" cy="16" r="16" fill="#1976d2"/>
  <path d="M8 12C8 8.68629 10.6863 6 14 6H18C21.3137 6 24 8.68629 24 12V14H22C21.4477 14 21 14.4477 21 15V19C21 19.5523 21.4477 20 22 20H24V12C24 8.68629 21.3137 6 18 6H14C10.6863 6 8 8.68629 8 12V20H10C10.5523 20 11 19.5523 11 19V15C11 14.4477 10.5523 14 10 14H8V12Z" fill="white"/>
  <circle cx="16" cy="22" r="2" fill="#ff9800"/>
  <rect x="17" y="16" width="1" height="6" fill="#ff9800"/>
  <path d="M18 16C18 16 20 15 20 17V19C20 19 18 20 18 18V16Z" fill="#ff9800"/>
  <path d="M25 11C25.5523 11 26 11.4477 26 12V20C26 20.5523 25.5523 21 25 21C24.4477 21 24 20.5523 24 20V12C24 11.4477 24.4477 11 25 11Z" fill="white" opacity="0.7"/>
  <path d="M27 13C27.5523 13 28 13.4477 28 14V18C28 18.5523 27.5523 19 27 19C26.4477 19 26 18.5523 26 18V14C26 13.4477 26.4477 13 27 13Z" fill="white" opacity="0.5"/>
</svg>